<?xml version="1.0" encoding="UTF-8" standalone="no"?>
<!-- Created with Bouml (http://bouml.free.fr/) -->
<!DOCTYPE svg PUBLIC "-//W3C//DTD SVG 1.1//EN" "http://www.w3.org/Graphics/SVG/1.1/DTD/svg11.dtd">
<svg width="1308" height="717" version="1.1" xmlns="http://www.w3.org/2000/svg">
<g>
	<rect fill="none" stroke="black" stroke-width="1" stroke-opacity="1" x="514" y="25" width="254" height="13" />
	<rect fill="none" stroke="black" stroke-width="1" stroke-opacity="1" x="514" y="39" width="637" height="332" />
	<text font-family="Helvetica" font-size="6" fill="#000000" xml:space="preserve" text-anchor="middle" x="833" y="47">project</text>
</g>
<g>
	<rect fill="none" stroke="black" stroke-width="1" stroke-opacity="1" x="554" y="441" width="199" height="13" />
	<rect fill="none" stroke="black" stroke-width="1" stroke-opacity="1" x="554" y="455" width="499" height="263" />
	<text font-family="Helvetica" font-size="6" fill="#000000" xml:space="preserve" text-anchor="middle" x="804" y="463">projectpairmachine</text>
</g>
<g>
	<rect fill="#cbcbcb" stroke="none" stroke-opacity="1" x="880" y="240" width="2" height="98" />
	<rect fill="#cbcbcb" stroke="none" stroke-opacity="1" x="770" y="336" width="112" height="2" />
	<rect fill="#ffffc0" stroke="black" stroke-width="1" stroke-opacity="1" x="767" y="237" width="113" height="99" />
	<text font-family="Helvetica" font-size="6" fill="#000000" xml:space="preserve" font-weight="bold" text-anchor="middle" x="824" y="244">Projects</text>
	<line stroke="black" stroke-opacity="1" x1="767" y1="250" x2="880" y2="250" />
	<text font-family="Helvetica" font-size="6" fill="#000000" xml:space="preserve" text-decoration="underline" x="769" y="257">CPP_FILTER</text>
	<text font-family="Helvetica" font-size="6" fill="#000000" xml:space="preserve" text-decoration="underline" x="769" y="269">JAVA_FILTER</text>
	<text font-family="Helvetica" font-size="6" fill="#000000" xml:space="preserve" text-decoration="underline" x="769" y="281">CPP_AND_JAVA_FILTER</text>
	<text font-family="Helvetica" font-size="6" fill="#000000" xml:space="preserve" text-decoration="underline" x="769" y="293">TXT_FILTER</text>
	<text font-family="Helvetica" font-size="6" fill="#000000" xml:space="preserve" text-decoration="underline" x="769" y="305">NO_FILTER</text>
	<line stroke="black" stroke-opacity="1" x1="767" y1="311" x2="880" y2="311" />
	<text font-family="Helvetica" font-size="6" fill="#000000" xml:space="preserve" x="769" y="318">Projects()</text>
	<text font-family="Helvetica" font-size="6" fill="#000000" xml:space="preserve" text-decoration="underline" x="769" y="330">compare()</text>
</g>
<g>
	<rect fill="#cbcbcb" stroke="none" stroke-opacity="1" x="658" y="100" width="2" height="78" />
	<rect fill="#cbcbcb" stroke="none" stroke-opacity="1" x="568" y="176" width="92" height="2" />
	<rect fill="#ffffc0" stroke="black" stroke-width="1" stroke-opacity="1" x="565" y="97" width="93" height="79" />
	<text font-family="Helvetica" font-size="6" fill="#000000" xml:space="preserve" font-weight="bold" text-anchor="middle" x="612" y="104">MultiProjectStorage</text>
	<line stroke="black" stroke-opacity="1" x1="565" y1="110" x2="658" y2="110" />
	<line stroke="black" stroke-opacity="1" x1="565" y1="115" x2="658" y2="115" />
	<text font-family="Helvetica" font-size="6" fill="#000000" xml:space="preserve" x="567" y="122">iterator()</text>
	<text font-family="Helvetica" font-size="6" fill="#000000" xml:space="preserve" text-decoration="underline" x="567" y="134">projectsIn()</text>
	<text font-family="Helvetica" font-size="6" fill="#000000" xml:space="preserve" text-decoration="underline" x="567" y="146">fromCollection()</text>
	<text font-family="Helvetica" font-size="6" fill="#000000" xml:space="preserve" x="567" y="158">MultiProjectStorage()</text>
	<text font-family="Helvetica" font-size="6" fill="#000000" xml:space="preserve" x="567" y="170">MultiProjectStorage()</text>
</g>
<g>
	<rect fill="#cbcbcb" stroke="none" stroke-opacity="1" x="219" y="329" width="2" height="121" />
	<rect fill="#cbcbcb" stroke="none" stroke-opacity="1" x="97" y="448" width="124" height="2" />
	<rect fill="#ffffc0" stroke="black" stroke-width="1" stroke-opacity="1" x="94" y="326" width="125" height="122" />
	<text font-family="Helvetica" font-size="6" fill="#000000" xml:space="preserve" font-weight="bold" text-anchor="middle" x="157" y="333">HashingTokenizer</text>
	<line stroke="black" stroke-opacity="1" x1="94" y1="339" x2="219" y2="339" />
	<text font-family="Helvetica" font-size="6" fill="#000000" xml:space="preserve" x="96" y="346">tokenizer</text>
	<text font-family="Helvetica" font-size="6" fill="#000000" xml:space="preserve" text-decoration="underline" x="96" y="358">QUOTE</text>
	<line stroke="black" stroke-opacity="1" x1="94" y1="364" x2="219" y2="364" />
	<text font-family="Helvetica" font-size="6" fill="#000000" xml:space="preserve" x="96" y="371">addCharacterToken()</text>
	<text font-family="Helvetica" font-size="6" fill="#000000" xml:space="preserve" x="96" y="383">isAtEnd()</text>
	<text font-family="Helvetica" font-size="6" fill="#000000" xml:space="preserve" x="96" y="395">getNextTokenInfo()</text>
	<text font-family="Helvetica" font-size="6" fill="#000000" xml:space="preserve" x="96" y="407">getNextTokenCluster()</text>
	<text font-family="Helvetica" font-size="6" fill="#000000" xml:space="preserve" x="96" y="419">remainingTokenClusters()</text>
	<text font-family="Helvetica" font-size="6" fill="#000000" xml:space="preserve" x="96" y="431">HashingTokenizer()</text>
</g>
<g>
	<rect fill="#cbcbcb" stroke="none" stroke-opacity="1" x="409" y="215" width="2" height="121" />
	<rect fill="#cbcbcb" stroke="none" stroke-opacity="1" x="345" y="334" width="66" height="2" />
	<rect fill="#ffffc0" stroke="black" stroke-width="1" stroke-opacity="1" x="342" y="212" width="67" height="122" />
	<text font-family="Helvetica" font-size="6" fill="#000000" xml:space="preserve" font-weight="bold" text-anchor="middle" x="376" y="219">Token</text>
	<line stroke="black" stroke-opacity="1" x1="342" y1="225" x2="409" y2="225" />
	<text font-family="Helvetica" font-size="6" fill="#000000" xml:space="preserve" x="344" y="232">id</text>
	<text font-family="Helvetica" font-size="6" fill="#000000" xml:space="preserve" x="344" y="244">lineNo</text>
	<text font-family="Helvetica" font-size="6" fill="#000000" xml:space="preserve" x="344" y="256">value</text>
	<line stroke="black" stroke-opacity="1" x1="342" y1="262" x2="409" y2="262" />
	<text font-family="Helvetica" font-size="6" fill="#000000" xml:space="preserve" x="344" y="269">Token()</text>
	<text font-family="Helvetica" font-size="6" fill="#000000" xml:space="preserve" x="344" y="281">getLineNo()</text>
	<text font-family="Helvetica" font-size="6" fill="#000000" xml:space="preserve" x="344" y="293">getId()</text>
	<text font-family="Helvetica" font-size="6" fill="#000000" xml:space="preserve" x="344" y="305">equals()</text>
	<text font-family="Helvetica" font-size="6" fill="#000000" xml:space="preserve" x="344" y="317">hashCode()</text>
</g>
<g>
	<line stroke="black" stroke-opacity="1" x1="766" y1="248" x2="750" y2="237" />
</g>
<g>
	<line stroke="black" stroke-opacity="1" x1="766" y1="248" x2="750" y2="237" />
</g>
<g>
	<line stroke="black" stroke-opacity="1" x1="820" y1="339" x2="813" y2="344" />
	<line stroke="black" stroke-opacity="1" x1="820" y1="339" x2="825" y2="345" />
	<line stroke-dasharray="4,4" stroke="black" stroke-opacity="1" x1="813" y1="440" x2="820" y2="339" />
</g>
<g>
	<line stroke="black" stroke-opacity="1" x1="750" y1="237" x2="750" y2="257" />
</g>
<g>
	<line stroke="black" stroke-opacity="1" x1="750" y1="237" x2="750" y2="257" />
</g>
<g>
	<line stroke="black" stroke-opacity="1" x1="766" y1="263" x2="762" y2="255" />
	<line stroke="black" stroke-opacity="1" x1="766" y1="263" x2="758" y2="266" />
	<line stroke="black" stroke-opacity="1" x1="750" y1="257" x2="766" y2="263" />
</g>
<g>
	<line stroke="black" stroke-opacity="1" x1="766" y1="263" x2="762" y2="255" />
	<line stroke="black" stroke-opacity="1" x1="766" y1="263" x2="758" y2="266" />
	<line stroke="black" stroke-opacity="1" x1="750" y1="257" x2="766" y2="263" />
</g>
<g>
	<ellipse fill="#ffffc0" stroke="black" stroke-width="1" stroke-opacity="1" cx="931" cy="516" rx="6" ry="6" />
	<text font-family="Helvetica" font-size="6" fill="#000000" xml:space="preserve" font-weight="bold" text-anchor="middle" x="931" y="530">MultiProjectComparison</text>
	<line stroke="black" stroke-opacity="1" x1="874" y1="536" x2="988" y2="536" />
	<line stroke="black" stroke-opacity="1" x1="874" y1="541" x2="988" y2="541" />
</g>
<g>
	<rect fill="#cbcbcb" stroke="none" stroke-opacity="1" x="741" y="619" width="2" height="54" />
	<rect fill="#cbcbcb" stroke="none" stroke-opacity="1" x="623" y="671" width="120" height="2" />
	<rect fill="#ffffc0" stroke="black" stroke-width="1" stroke-opacity="1" x="620" y="616" width="121" height="55" />
	<text font-family="Helvetica" font-size="6" fill="#000000" xml:space="preserve" font-weight="bold" text-anchor="middle" x="681" y="623">ProjectsCorrelationMatrix</text>
	<line stroke="black" stroke-opacity="1" x1="620" y1="629" x2="741" y2="629" />
	<line stroke="black" stroke-opacity="1" x1="620" y1="634" x2="741" y2="634" />
	<text font-family="Helvetica" font-size="6" fill="#000000" xml:space="preserve" x="622" y="641">ProjectsCorrelationMatrix()</text>
	<text font-family="Helvetica" font-size="6" fill="#000000" xml:space="preserve" x="622" y="653">getRows()</text>
	<text font-family="Helvetica" font-size="6" fill="#000000" xml:space="preserve" x="622" y="665">iterator()</text>
</g>
<g>
	<rect fill="#cbcbcb" stroke="none" stroke-opacity="1" x="193" y="216" width="2" height="52" />
	<rect fill="#cbcbcb" stroke="none" stroke-opacity="1" x="74" y="266" width="121" height="2" />
	<rect fill="#ffffc0" stroke="black" stroke-width="1" stroke-opacity="1" x="71" y="213" width="122" height="53" />
	<text font-family="Helvetica" font-size="6" fill="#000000" xml:space="preserve" font-weight="bold" text-anchor="middle" x="132" y="220">TokenHashingStrategy</text>
	<line stroke="black" stroke-opacity="1" x1="71" y1="226" x2="193" y2="226" />
	<line stroke="black" stroke-opacity="1" x1="71" y1="231" x2="193" y2="231" />
	<text font-family="Helvetica" font-size="6" fill="#000000" xml:space="preserve" x="73" y="238">TokenHashingStrategy()</text>
	<text font-family="Helvetica" font-size="6" fill="#000000" xml:space="preserve" x="73" y="250">compare()</text>
</g>
<g>
	<rect fill="#cbcbcb" stroke="none" stroke-opacity="1" x="878" y="96" width="2" height="86" />
	<rect fill="#cbcbcb" stroke="none" stroke-opacity="1" x="770" y="180" width="110" height="2" />
	<rect fill="#ffffc0" stroke="black" stroke-width="1" stroke-opacity="1" x="767" y="93" width="111" height="87" />
	<text font-family="Helvetica" font-size="6" fill="#000000" xml:space="preserve" font-weight="bold" text-anchor="middle" x="823" y="100">Project</text>
	<line stroke="black" stroke-opacity="1" x1="767" y1="106" x2="878" y2="106" />
	<text font-family="Helvetica" font-size="6" fill="#000000" xml:space="preserve" x="769" y="113">name</text>
	<text font-family="Helvetica" font-size="6" fill="#000000" xml:space="preserve" x="769" y="125">path</text>
	<line stroke="black" stroke-opacity="1" x1="767" y1="131" x2="878" y2="131" />
	<text font-family="Helvetica" font-size="6" fill="#000000" xml:space="preserve" x="769" y="138">Project()</text>
	<text font-family="Helvetica" font-size="6" fill="#000000" xml:space="preserve" x="769" y="150">getConcatenatedReader()</text>
	<text font-family="Helvetica" font-size="6" fill="#000000" xml:space="preserve" x="769" y="162">getPath()</text>
	<text font-family="Helvetica" font-size="6" fill="#000000" xml:space="preserve" x="769" y="174">getName()</text>
</g>
<g>
	<rect fill="#cbcbcb" stroke="none" stroke-opacity="1" x="418" y="91" width="2" height="64" />
	<rect fill="#cbcbcb" stroke="none" stroke-opacity="1" x="341" y="153" width="79" height="2" />
	<rect fill="#ffffc0" stroke="black" stroke-width="1" stroke-opacity="1" x="338" y="88" width="80" height="65" />
	<text font-family="Helvetica" font-size="6" fill="#000000" xml:space="preserve" font-weight="bold" text-anchor="middle" x="378" y="95">TokenCluster</text>
	<line stroke="black" stroke-opacity="1" x1="338" y1="101" x2="418" y2="101" />
	<line stroke="black" stroke-opacity="1" x1="338" y1="106" x2="418" y2="106" />
	<text font-family="Helvetica" font-size="6" fill="#000000" xml:space="preserve" x="340" y="113">equals()</text>
	<text font-family="Helvetica" font-size="6" fill="#000000" xml:space="preserve" x="340" y="125">hashCode()</text>
	<text font-family="Helvetica" font-size="6" fill="#000000" xml:space="preserve" x="340" y="137">TokenCluster()</text>
</g>
<g>
	<line stroke="black" stroke-opacity="1" x1="824" y1="183" x2="818" y2="189" />
	<line stroke="black" stroke-opacity="1" x1="824" y1="183" x2="830" y2="189" />
	<line stroke="black" stroke-opacity="1" x1="824" y1="236" x2="824" y2="183" />
</g>
<g>
	<line stroke="black" stroke-opacity="1" x1="377" y1="211" x2="383" y2="205" />
	<line stroke="black" stroke-opacity="1" x1="377" y1="211" x2="371" y2="204" />
	<line stroke="black" stroke-opacity="1" x1="378" y1="156" x2="377" y2="211" />
</g>
<g>
	<line stroke="black" stroke-opacity="1" x1="766" y1="138" x2="760" y2="132" />
	<line stroke="black" stroke-opacity="1" x1="766" y1="138" x2="760" y2="144" />
	<line stroke="black" stroke-opacity="1" x1="661" y1="138" x2="766" y2="138" />
</g>
<g>
	<text font-family="Helvetica" font-size="6" fill="#000000" xml:space="preserve" x="683" y="144">&lt;&lt;Collection&gt;&gt;</text>
</g>
<g>
	<text font-family="Helvetica" font-size="6" fill="#000000" xml:space="preserve" x="351" y="165">&lt;&lt;Collection&gt;&gt;</text>
</g>
<g>
	<ellipse fill="#ffffc0" stroke="black" stroke-width="1" stroke-opacity="1" cx="292" cy="400" rx="6" ry="6" />
	<text font-family="Helvetica" font-size="6" fill="#000000" xml:space="preserve" font-weight="bold" text-anchor="middle" x="293" y="414">ComparisonStrategy</text>
	<line stroke="black" stroke-opacity="1" x1="236" y1="420" x2="349" y2="420" />
	<line stroke="black" stroke-opacity="1" x1="236" y1="425" x2="349" y2="425" />
	<text font-family="Helvetica" font-size="6" fill="#000000" xml:space="preserve" x="238" y="432">compare()</text>
</g>
<g>
	<rect fill="#cbcbcb" stroke="none" stroke-opacity="1" x="267" y="75" width="2" height="97" />
	<rect fill="#cbcbcb" stroke="none" stroke-opacity="1" x="113" y="170" width="156" height="2" />
	<rect fill="#ffffc0" stroke="black" stroke-width="1" stroke-opacity="1" x="110" y="72" width="157" height="98" />
	<text font-family="Helvetica" font-size="6" fill="#000000" xml:space="preserve" font-weight="bold" text-anchor="middle" x="189" y="79">TokenClusterOccurrenceTable</text>
	<line stroke="black" stroke-opacity="1" x1="110" y1="85" x2="267" y2="85" />
	<text font-family="Helvetica" font-size="6" fill="#000000" xml:space="preserve" text-decoration="underline" x="112" y="92">DEFAULT_CLUSTER_SIZE</text>
	<line stroke="black" stroke-opacity="1" x1="110" y1="98" x2="267" y2="98" />
	<text font-family="Helvetica" font-size="6" fill="#000000" xml:space="preserve" x="112" y="105">TokenClusterOccurrenceTable()</text>
	<text font-family="Helvetica" font-size="6" fill="#000000" xml:space="preserve" x="112" y="117">addOccurred()</text>
	<text font-family="Helvetica" font-size="6" fill="#000000" xml:space="preserve" x="112" y="129">tabulate()</text>
	<text font-family="Helvetica" font-size="6" fill="#000000" xml:space="preserve" x="112" y="141">collisionCount()</text>
	<text font-family="Helvetica" font-size="6" fill="#000000" xml:space="preserve" x="112" y="153">total()</text>
</g>
<g>
	<line stroke-dasharray="4,4" stroke="#000000" stroke-opacity="1" x1="158" y1="269" x2="263" y2="388" />
	<line stroke="#000000" stroke-opacity="1" x1="267" y1="393" x2="267" y2="384" />
	<line stroke="#000000" stroke-opacity="1" x1="267" y1="393" x2="258" y2="392" />
	<line stroke="#000000" stroke-opacity="1" x1="267" y1="384" x2="258" y2="392" />
</g>
<g>
	<line stroke="black" stroke-opacity="1" x1="337" y1="121" x2="330" y2="115" />
	<line stroke="black" stroke-opacity="1" x1="337" y1="121" x2="331" y2="127" />
	<line stroke="black" stroke-opacity="1" x1="270" y1="122" x2="337" y2="121" />
</g>
<g>
	<text font-family="Helvetica" font-size="6" fill="#000000" xml:space="preserve" x="275" y="128">&lt;&lt;HashMap&gt;&gt;</text>
</g>
<g>
	<rect fill="none" stroke="black" stroke-width="1" stroke-opacity="1" x="62" y="31" width="147" height="13" />
	<rect fill="none" stroke="black" stroke-width="1" stroke-opacity="1" x="62" y="45" width="371" height="483" />
	<text font-family="Helvetica" font-size="6" fill="#000000" xml:space="preserve" text-anchor="middle" x="248" y="53">algorithm</text>
</g>
<g>
	<rect fill="#cbcbcb" stroke="none" stroke-opacity="1" x="753" y="501" width="2" height="54" />
	<rect fill="#cbcbcb" stroke="none" stroke-opacity="1" x="611" y="553" width="144" height="2" />
	<rect fill="#ffffc0" stroke="black" stroke-width="1" stroke-opacity="1" x="608" y="498" width="145" height="55" />
	<text font-family="Helvetica" font-size="6" fill="#000000" xml:space="preserve" font-weight="bold" text-anchor="middle" x="681" y="505">SimpleMultiProjectComparison</text>
	<line stroke="black" stroke-opacity="1" x1="608" y1="511" x2="753" y2="511" />
	<line stroke="black" stroke-opacity="1" x1="608" y1="516" x2="753" y2="516" />
	<text font-family="Helvetica" font-size="6" fill="#000000" xml:space="preserve" x="610" y="523">SimpleMultiProjectComparison()</text>
	<text font-family="Helvetica" font-size="6" fill="#000000" xml:space="preserve" x="610" y="535">compareAll()</text>
	<text font-family="Helvetica" font-size="6" fill="#000000" xml:space="preserve" x="610" y="547">compareAgainstAll()</text>
</g>
<g>
	<line stroke="black" stroke-opacity="1" x1="433" y1="280" x2="438" y2="286" />
	<line stroke="black" stroke-opacity="1" x1="433" y1="280" x2="439" y2="274" />
	<line stroke-dasharray="4,4" stroke="black" stroke-opacity="1" x1="766" y1="286" x2="433" y2="280" />
</g>
<g>
	<line stroke="black" stroke-opacity="1" x1="349" y1="435" x2="353" y2="442" />
	<line stroke="black" stroke-opacity="1" x1="349" y1="435" x2="356" y2="430" />
	<line stroke="black" stroke-opacity="1" x1="607" y1="505" x2="349" y2="435" />
</g>
<g>
	<line stroke="#000000" stroke-opacity="1" x1="756" y1="527" x2="867" y2="527" />
	<line stroke="#000000" stroke-opacity="1" x1="873" y1="527" x2="867" y2="521" />
	<line stroke="#000000" stroke-opacity="1" x1="873" y1="527" x2="867" y2="533" />
	<line stroke="#000000" stroke-opacity="1" x1="867" y1="521" x2="867" y2="533" />
</g>
<g>
	<line stroke="black" stroke-opacity="1" x1="682" y1="615" x2="688" y2="609" />
	<line stroke="black" stroke-opacity="1" x1="682" y1="615" x2="676" y2="609" />
	<line stroke-dasharray="4,4" stroke="black" stroke-opacity="1" x1="682" y1="556" x2="682" y2="615" />
</g>
<g>
	<text font-family="Helvetica" font-size="6" fill="#000000" xml:space="preserve" x="387" y="200">tokens</text>
</g>
<g>
	<text font-family="Helvetica" font-size="6" fill="#000000" xml:space="preserve" x="359" y="427">strategy</text>
</g>
<g>
	<text font-family="Helvetica" font-size="6" fill="#000000" xml:space="preserve" x="721" y="128">projects</text>
</g>
<g>
	<text font-family="Helvetica" font-size="6" fill="#000000" xml:space="preserve" x="275" y="111">occurrences</text>
</g>
<g>
	<rect fill="#cbcbcb" stroke="none" stroke-opacity="1" x="1029" y="85" width="2" height="110" />
	<rect fill="#cbcbcb" stroke="none" stroke-opacity="1" x="961" y="193" width="70" height="2" />
	<rect fill="#ffffc0" stroke="black" stroke-width="1" stroke-opacity="1" x="958" y="82" width="71" height="111" />
	<text font-family="Helvetica" font-size="6" fill="#000000" xml:space="preserve" font-weight="bold" text-anchor="middle" x="994" y="89">ProjectBuilder</text>
	<line stroke="black" stroke-opacity="1" x1="958" y1="95" x2="1029" y2="95" />
	<text font-family="Helvetica" font-size="6" fill="#000000" xml:space="preserve" x="960" y="102">path</text>
	<text font-family="Helvetica" font-size="6" fill="#000000" xml:space="preserve" x="960" y="114">name</text>
	<text font-family="Helvetica" font-size="6" fill="#000000" xml:space="preserve" x="960" y="126">globFilter</text>
	<line stroke="black" stroke-opacity="1" x1="958" y1="132" x2="1029" y2="132" />
	<text font-family="Helvetica" font-size="6" fill="#000000" xml:space="preserve" x="960" y="139">ProjectBuilder()</text>
	<text font-family="Helvetica" font-size="6" fill="#000000" xml:space="preserve" x="960" y="151">setPath()</text>
	<text font-family="Helvetica" font-size="6" fill="#000000" xml:space="preserve" x="960" y="163">setName()</text>
	<text font-family="Helvetica" font-size="6" fill="#000000" xml:space="preserve" x="960" y="175">setGlobFilter()</text>
	<text font-family="Helvetica" font-size="6" fill="#000000" xml:space="preserve" x="960" y="187">createProject()</text>
</g>
<g>
	<line stroke="black" stroke-opacity="1" x1="881" y1="138" x2="887" y2="144" />
	<line stroke="black" stroke-opacity="1" x1="881" y1="138" x2="887" y2="132" />
	<line stroke-dasharray="4,4" stroke="black" stroke-opacity="1" x1="957" y1="138" x2="881" y2="138" />
</g>
</svg>
